<svg viewBox="-150 -145 275 315"
     style="background-color:#a80030"
     xmlns="http://www.w3.org/2000/svg">
  <path d="M22.98-19.28A30 30 0 1 0-17.2 24.57
           M-34.64 20A40 40 0 0 0 6.94 39.39
           m-15.62 9.85A50 50 0 0 0 49.24 8.68
           M51.96 30a60 60 0 0 0-2.82-64.41
           M69.73-6.1a70 70 0 0 0-99.31-57.34
           M69.28-40A80 80 0 0 0-75.17-27.36
           m59.55-61.27a90 90 0 0 0-58.1 140.25
           M-99.61 8.71a100 100 0 0 0 42.26 73.2
           m-20.43-4.13a110 110 0 0 0 49.31 28.47
           m-22.24 2.5A120 120 0 0 0 0 120"
  fill="none" stroke="#fff" stroke-width="5"/>
</svg>