<svg viewBox="-150 -145 275 315"
     style="background-color:#a80030"
     xmlns="http://www.w3.org/2000/svg">
  <path d="M-19.28-22.98a30 30 0 0 0 0 45.96
           M22.5-26.81A35 35 0 1 0-3.05 34.87
           m-27.59-9.16a40 40 0 0 0 44.32 11.88
           m-25.33 5.88a45 45 0 0 0 46.12-14.54
           m-5.79 12.03A50 50 0 0 0 48.3 12.94
           m-3.25 18.61a55 55 0 0 0 9.11-41.1
           m3.79 25.08a60 60 0 0 0-3.57-40.89
           M65 0a65 65 0 0 0-19.04-45.96
           m22.98 33.8A70 70 0 0 0 35-60.62
           M67.97-31.7A75 75 0 0 0 6.54-74.72
           m68.64 47.36A80 80 0 0 0-61.28-51.42
           m130.91 2.67A85 85 0 0 0-83.71-14.76
           M57.85-68.94A90 90 0 0 0-73.72 51.62
           M-16.5-93.56A95 95 0 0 0-72.77 61.06
           m8.49-137.66a100 100 0 0 0 0 153.2
           m-30.88-32.23A105 105 0 0 0-52.5 90.93
           m-25.28-13.15a110 110 0 0 0 40.16 25.59
           m-19.88-3.78a115 115 0 0 0 37.53 13.66
           m-11.09 2.66A120 120 0 0 0 0 120"
  fill="none" stroke="#fff" stroke-width="2.5"/>
</svg>
